<svg xmlns="http://www.w3.org/2000/svg" viewBox="0 0 1024 1024">
  <circle cx="512" cy="512" r="512" fill="#ec6523" />
  <g fill="none" stroke="#fff" stroke-linecap="round" stroke-linejoin="round" stroke-width="10">
    <path
      d="M735 290l55-5L918 391 795 510l-50-20-75-20-115 65 60-297M170 560l85 75 40 15 105 10 215-85 50-10 15 60L515 785l30 25 15-10 20-55 135-85 25-70-20-15 20-85 115-40L735 290l-80-65-65 20L420 500l25-120 90-50-145-5-65-65-40 75 10 145 60 5m315-15 20-215-100 95-90 155-70 20 185 50m10-2.6L555 540v-5M445 380l-55-55m30 175-50-195m-85 30 85 75 50 90-40-10m40 10 10 55-15 50-40-125-125 40 60 120 90 20 40-30-25-25M250 520l-85-15 5 90-20 35 45 70h65l50-30 125 55 50-30 60 20-33 41.2 3 28.8m45 15-50 15-68.4-40.8L360 825l-26-13.8-34 8.8-30-60-50 20-40-60-67.2-59L155 640m10-135 90 130m180 90 5 50M295 480l10 20" />
  </g>
</svg>