<?xml version="1.0" encoding="utf-8"?>
<!-- Generator: Adobe Illustrator 27.0.1, SVG Export Plug-In . SVG Version: 6.00 Build 0)  -->
<svg version="1.1" id="Layer_1" xmlns="http://www.w3.org/2000/svg" xmlns:xlink="http://www.w3.org/1999/xlink" x="0px" y="0px"
	 viewBox="0 0 126.49 171.1" style="enable-background:new 0 0 126.49 171.1;" xml:space="preserve">
<style type="text/css">
	.st0{fill:#E23E51;}
	.st1{fill:#FFFFFF;}
	.st2{fill:#838384;}
</style>
<circle class="st0" cx="63.25" cy="63.25" r="63.25"/>
<path class="st1" d="M70.49,99.05c-3.74,0-5.85-3.09-7.73-5.83c-1.7-2.49-3.31-4.84-5.89-5.11c-2.93-0.31-5.65,1.18-8.05,2.5
	c-2.75,1.51-5.58,3.06-8.14,1.19c-3.77-2.76-2.55-6.97-1.56-10.34c0.53-1.82,1.08-3.69,1-5.37c-0.11-1.04-3.56-3.94-5.85-5.85
	c-5.77-4.83-12.95-10.84-10.04-16.88v0c2.2-4.57,8-2.84,12.65-1.45c2.74,0.82,5.84,1.74,7.47,1.25c1.05-0.32,0.16-6.43-0.17-8.73
	c-0.9-6.16-1.82-12.54,2.73-13.89c5.97-1.77,8.41,6.46,10.2,12.47c0.51,1.72,1.17,3.95,1.71,5.04c0.9-0.99,2.38-3.21,3.6-5.06
	c4.87-7.33,11.53-17.37,18.77-13.81c3.97,1.95,2.98,6.93,1.93,12.2c-1.02,5.11-2.18,10.89,0.89,14.28c3.06,3.38,7.23,4.3,10.9,5.12
	c3.96,0.88,8.05,1.78,8.05,6.24c0,5.13-6.64,6.68-13.06,8.17c-4.16,0.97-8.86,2.06-10.21,3.9c-1.35,1.85-1.74,5.24-2.11,8.52
	c-0.58,5.08-1.23,10.83-6.27,11.4C71.02,99.04,70.75,99.05,70.49,99.05z M56.07,84.57c0.38,0,0.77,0.02,1.16,0.06
	c4.19,0.44,6.44,3.72,8.42,6.61c1.92,2.81,3.2,4.52,5.25,4.29c2.12-0.24,2.64-3.45,3.19-8.32c0.42-3.73,0.86-7.58,2.76-10.18
	c2.11-2.89,7.03-4.04,12.25-5.25c4.61-1.07,10.36-2.41,10.36-4.76c0-1.43-1.19-1.91-5.3-2.82c-3.98-0.88-8.92-1.98-12.74-6.19
	c-4.25-4.7-2.85-11.7-1.73-17.32c0.78-3.91,1.52-7.61-0.04-8.38c-4.49-2.21-10.4,6.71-14.31,12.6c-3.03,4.56-4.44,6.59-6.15,6.96
	c-2.91,0.63-3.97-2.94-5.44-7.88c-1.29-4.33-3.22-10.89-5.85-10.11c-1.65,0.49-0.78,6.46-0.27,10.03
	c0.85,5.85,1.65,11.38-2.27,12.58c-2.64,0.81-5.97-0.19-9.49-1.24c-4.44-1.33-7.66-2.13-8.5-0.39c-1.72,3.58,4.3,8.62,9.13,12.67
	c4.05,3.39,6.98,5.84,7.1,8.36c0.11,2.26-0.55,4.53-1.13,6.52c-1.08,3.71-1.36,5.34,0.27,6.54c0.71,0.52,2.13-0.19,4.39-1.43
	C49.58,86.21,52.56,84.57,56.07,84.57z"/>
<path class="st0" d="M25.65,142.63c0-1.04,0.19-2.07,0.56-3.08c0.38-1.02,0.92-1.92,1.64-2.72c0.72-0.8,1.6-1.45,2.64-1.94
	c1.04-0.5,2.22-0.74,3.55-0.74c1.57,0,2.92,0.34,4.07,1.03c1.14,0.69,2,1.58,2.56,2.69l-2.54,1.75c-0.22-0.48-0.5-0.88-0.82-1.21
	c-0.32-0.33-0.67-0.59-1.03-0.78c-0.37-0.19-0.75-0.33-1.15-0.42c-0.4-0.09-0.79-0.13-1.18-0.13c-0.83,0-1.56,0.17-2.17,0.5
	c-0.62,0.34-1.13,0.77-1.54,1.31c-0.41,0.54-0.72,1.14-0.92,1.82c-0.21,0.68-0.31,1.36-0.31,2.03c0,0.75,0.12,1.48,0.36,2.17
	c0.24,0.7,0.58,1.31,1.02,1.84c0.44,0.53,0.97,0.95,1.58,1.27c0.62,0.32,1.29,0.48,2.03,0.48c0.38,0,0.78-0.05,1.2-0.14
	c0.42-0.1,0.81-0.25,1.19-0.46s0.72-0.48,1.04-0.8c0.32-0.33,0.58-0.72,0.77-1.19l2.71,1.56c-0.27,0.64-0.66,1.2-1.16,1.69
	c-0.5,0.49-1.07,0.9-1.7,1.24c-0.63,0.34-1.31,0.59-2.03,0.77c-0.72,0.18-1.42,0.26-2.11,0.26c-1.22,0-2.33-0.26-3.34-0.77
	c-1.01-0.51-1.88-1.18-2.6-2c-0.73-0.82-1.3-1.76-1.7-2.81C25.85,144.79,25.65,143.72,25.65,142.63z"/>
<path class="st0" d="M48.64,151.51c-1.02,0-1.94-0.18-2.76-0.53c-0.82-0.35-1.51-0.83-2.08-1.43c-0.57-0.6-1-1.29-1.31-2.08
	c-0.3-0.78-0.46-1.61-0.46-2.47c0-0.88,0.15-1.71,0.46-2.5c0.3-0.78,0.74-1.48,1.31-2.08s1.26-1.08,2.08-1.43
	c0.82-0.35,1.74-0.53,2.76-0.53c1.02,0,1.94,0.18,2.75,0.53c0.81,0.35,1.5,0.83,2.06,1.43c0.57,0.6,1,1.29,1.31,2.08
	c0.3,0.78,0.46,1.62,0.46,2.5c0,0.86-0.15,1.69-0.46,2.47c-0.3,0.78-0.74,1.48-1.3,2.08c-0.56,0.6-1.25,1.08-2.06,1.43
	C50.58,151.33,49.66,151.51,48.64,151.51z M45.35,145.01c0,0.56,0.08,1.07,0.25,1.52c0.17,0.46,0.4,0.85,0.7,1.19
	c0.3,0.34,0.64,0.6,1.04,0.78c0.4,0.18,0.83,0.28,1.3,0.28s0.9-0.09,1.3-0.28c0.4-0.18,0.75-0.44,1.04-0.78
	c0.3-0.34,0.53-0.74,0.7-1.2c0.17-0.46,0.25-0.98,0.25-1.54c0-0.54-0.08-1.05-0.25-1.51s-0.4-0.86-0.7-1.2s-0.64-0.6-1.04-0.78
	c-0.4-0.18-0.83-0.28-1.3-0.28s-0.9,0.1-1.3,0.29s-0.75,0.46-1.04,0.79s-0.53,0.74-0.7,1.2C45.43,143.96,45.35,144.46,45.35,145.01z
	"/>
<path class="st0" d="M57.35,133.75h3.22v13.49c0,0.46,0.11,0.82,0.34,1.08c0.22,0.26,0.54,0.38,0.96,0.38c0.19,0,0.4-0.03,0.64-0.1
	c0.23-0.06,0.45-0.14,0.66-0.24l0.43,2.45c-0.43,0.21-0.94,0.37-1.51,0.48s-1.1,0.17-1.56,0.17c-1.01,0-1.79-0.27-2.34-0.8
	c-0.55-0.54-0.83-1.3-0.83-2.29V133.75z"/>
<path class="st0" d="M70.79,151.51c-1.02,0-1.94-0.18-2.76-0.53c-0.82-0.35-1.51-0.83-2.08-1.43c-0.57-0.6-1-1.29-1.31-2.08
	c-0.3-0.78-0.46-1.61-0.46-2.47c0-0.88,0.15-1.71,0.46-2.5c0.3-0.78,0.74-1.48,1.31-2.08c0.57-0.6,1.26-1.08,2.08-1.43
	c0.82-0.35,1.74-0.53,2.76-0.53c1.02,0,1.94,0.18,2.75,0.53c0.81,0.35,1.5,0.83,2.06,1.43c0.57,0.6,1,1.29,1.31,2.08
	c0.3,0.78,0.46,1.62,0.46,2.5c0,0.86-0.15,1.69-0.46,2.47c-0.3,0.78-0.74,1.48-1.3,2.08c-0.56,0.6-1.25,1.08-2.06,1.43
	C72.73,151.33,71.81,151.51,70.79,151.51z M67.5,145.01c0,0.56,0.08,1.07,0.25,1.52c0.17,0.46,0.4,0.85,0.7,1.19
	c0.3,0.34,0.64,0.6,1.04,0.78c0.4,0.18,0.83,0.28,1.3,0.28c0.46,0,0.9-0.09,1.3-0.28c0.4-0.18,0.75-0.44,1.04-0.78
	c0.3-0.34,0.53-0.74,0.7-1.2c0.17-0.46,0.25-0.98,0.25-1.54c0-0.54-0.08-1.05-0.25-1.51s-0.4-0.86-0.7-1.2s-0.64-0.6-1.04-0.78
	c-0.4-0.18-0.83-0.28-1.3-0.28c-0.46,0-0.9,0.1-1.3,0.29c-0.4,0.19-0.75,0.46-1.04,0.79c-0.3,0.34-0.53,0.74-0.7,1.2
	C67.59,143.96,67.5,144.46,67.5,145.01z"/>
<path class="st0" d="M83.37,151.51c-1.3,0-2.28-0.42-2.95-1.25s-1.01-2.06-1.01-3.7v-7.87h3.22v7.18c0,1.94,0.7,2.9,2.09,2.9
	c0.62,0,1.23-0.19,1.81-0.56c0.58-0.38,1.06-0.95,1.43-1.72v-7.8h3.22v8.88c0,0.34,0.06,0.58,0.18,0.72s0.32,0.22,0.59,0.24v2.74
	c-0.32,0.06-0.59,0.1-0.8,0.12c-0.22,0.02-0.41,0.02-0.59,0.02c-0.58,0-1.04-0.13-1.4-0.4s-0.57-0.63-0.64-1.09l-0.07-1.01
	c-0.56,0.86-1.28,1.51-2.16,1.94C85.39,151.29,84.42,151.51,83.37,151.51z"/>
<path class="st0" d="M101.85,141.48c-0.98,0.02-1.85,0.2-2.62,0.56c-0.77,0.36-1.32,0.9-1.66,1.62v7.61h-3.22v-12.58h2.95v2.69
	c0.22-0.43,0.49-0.82,0.79-1.16s0.63-0.64,0.98-0.9c0.35-0.26,0.71-0.45,1.07-0.59c0.36-0.14,0.71-0.2,1.04-0.2c0.18,0,0.31,0,0.4,0
	s0.17,0.01,0.25,0.02V141.48z"/>
<path class="st2" d="M42.48,167.45c-0.76,0-1.5-0.12-2.23-0.35c-0.73-0.23-1.36-0.57-1.89-1.02l0.68-1.06
	c0.55,0.42,1.1,0.74,1.66,0.94c0.55,0.21,1.13,0.31,1.75,0.31c0.68,0,1.23-0.13,1.63-0.4s0.6-0.65,0.6-1.14
	c0-0.23-0.05-0.42-0.16-0.58c-0.11-0.16-0.27-0.3-0.49-0.42s-0.49-0.23-0.83-0.32c-0.34-0.1-0.73-0.2-1.17-0.31
	c-0.56-0.14-1.05-0.28-1.46-0.41s-0.74-0.29-1.01-0.47c-0.26-0.18-0.46-0.4-0.58-0.65s-0.18-0.56-0.18-0.94
	c0-0.47,0.09-0.88,0.28-1.25c0.19-0.37,0.44-0.67,0.76-0.92c0.32-0.25,0.71-0.43,1.14-0.56c0.44-0.13,0.91-0.19,1.41-0.19
	c0.71,0,1.37,0.11,1.98,0.34c0.61,0.23,1.13,0.53,1.55,0.9l-0.72,0.95c-0.4-0.35-0.84-0.61-1.33-0.78c-0.49-0.17-1-0.26-1.51-0.26
	c-0.58,0-1.06,0.12-1.47,0.37c-0.4,0.25-0.6,0.64-0.6,1.18c0,0.22,0.04,0.4,0.12,0.54c0.08,0.14,0.21,0.27,0.39,0.38
	c0.18,0.11,0.41,0.2,0.69,0.29c0.28,0.08,0.62,0.17,1.02,0.27c0.62,0.14,1.17,0.29,1.63,0.44s0.85,0.33,1.15,0.53
	c0.31,0.2,0.53,0.44,0.68,0.72c0.15,0.28,0.22,0.61,0.22,1.01c0,0.88-0.34,1.57-1.01,2.09C44.53,167.19,43.62,167.45,42.48,167.45z"
	/>
<path class="st2" d="M47.45,162.56c0-0.66,0.11-1.28,0.34-1.87c0.23-0.59,0.55-1.1,0.97-1.54s0.92-0.79,1.5-1.04
	c0.58-0.26,1.23-0.39,1.95-0.39c0.94,0,1.74,0.21,2.42,0.62s1.19,0.97,1.54,1.67l-1.55,0.49c-0.24-0.44-0.58-0.79-1.01-1.03
	s-0.91-0.37-1.44-0.37c-0.43,0-0.84,0.09-1.22,0.26c-0.38,0.17-0.71,0.42-0.99,0.73c-0.28,0.31-0.5,0.68-0.66,1.1
	c-0.16,0.42-0.24,0.88-0.24,1.39c0,0.49,0.08,0.95,0.25,1.39s0.39,0.81,0.67,1.12c0.28,0.32,0.61,0.57,0.99,0.75
	s0.78,0.27,1.21,0.27c0.28,0,0.55-0.04,0.82-0.12c0.27-0.08,0.52-0.18,0.74-0.31c0.22-0.13,0.42-0.28,0.58-0.46
	c0.17-0.17,0.29-0.36,0.36-0.57l1.55,0.47c-0.14,0.35-0.34,0.67-0.6,0.95c-0.26,0.29-0.56,0.53-0.91,0.74
	c-0.35,0.2-0.74,0.37-1.16,0.49s-0.87,0.18-1.34,0.18c-0.71,0-1.36-0.13-1.94-0.4c-0.59-0.26-1.09-0.62-1.51-1.06
	c-0.42-0.44-0.75-0.96-0.98-1.56C47.57,163.84,47.45,163.22,47.45,162.56z"/>
<path class="st2" d="M60.47,167.45c-0.44,0-0.86-0.08-1.24-0.23s-0.72-0.36-1-0.62c-0.28-0.26-0.5-0.57-0.67-0.93
	s-0.24-0.74-0.24-1.16c0-0.43,0.1-0.83,0.29-1.18c0.19-0.35,0.46-0.66,0.82-0.91c0.35-0.25,0.77-0.45,1.26-0.59s1.02-0.22,1.59-0.22
	c0.46,0,0.92,0.04,1.39,0.13c0.47,0.08,0.88,0.2,1.24,0.34v-0.76c0-0.77-0.22-1.37-0.65-1.81c-0.43-0.44-1.04-0.66-1.84-0.66
	c-0.95,0-1.94,0.37-2.99,1.1l-0.52-1.03c1.21-0.82,2.43-1.22,3.65-1.22c1.24,0,2.2,0.33,2.89,0.99c0.69,0.66,1.04,1.59,1.04,2.79
	v3.83c0,0.37,0.17,0.56,0.5,0.58v1.37c-0.17,0.02-0.31,0.04-0.41,0.05c-0.11,0.01-0.22,0.02-0.34,0.02c-0.31,0-0.56-0.09-0.75-0.28
	c-0.19-0.19-0.3-0.41-0.33-0.67l-0.04-0.67c-0.42,0.56-0.95,0.99-1.59,1.29C61.88,167.3,61.2,167.45,60.47,167.45z M60.88,166.26
	c0.56,0,1.09-0.1,1.58-0.32c0.49-0.21,0.85-0.49,1.11-0.84c0.23-0.23,0.34-0.46,0.34-0.7v-1.39c-0.77-0.3-1.57-0.45-2.39-0.45
	c-0.79,0-1.44,0.17-1.94,0.5s-0.75,0.77-0.75,1.31c0,0.26,0.05,0.51,0.15,0.74c0.1,0.23,0.25,0.43,0.43,0.59
	c0.19,0.17,0.4,0.3,0.66,0.4S60.59,166.26,60.88,166.26z"/>
<path class="st2" d="M73.08,167.45c-0.78,0-1.47-0.19-2.06-0.58c-0.59-0.38-1.07-0.87-1.41-1.46v5.69h-1.58v-13.23h1.4v1.76
	c0.37-0.58,0.85-1.04,1.45-1.4c0.59-0.35,1.25-0.53,1.97-0.53c0.65,0,1.24,0.13,1.78,0.4c0.54,0.26,1.01,0.62,1.4,1.07
	c0.4,0.45,0.71,0.97,0.93,1.56c0.22,0.59,0.33,1.2,0.33,1.84c0,0.67-0.1,1.31-0.31,1.9c-0.2,0.59-0.49,1.11-0.86,1.55
	s-0.82,0.79-1.33,1.04C74.28,167.32,73.71,167.45,73.08,167.45z M72.6,166.08c0.47,0,0.89-0.1,1.27-0.3c0.38-0.2,0.7-0.46,0.97-0.79
	c0.27-0.33,0.48-0.71,0.62-1.12c0.14-0.42,0.22-0.85,0.22-1.3c0-0.47-0.08-0.91-0.25-1.34c-0.17-0.43-0.4-0.8-0.68-1.12
	s-0.63-0.57-1.02-0.76c-0.39-0.19-0.81-0.28-1.27-0.28c-0.29,0-0.58,0.06-0.89,0.17c-0.31,0.11-0.59,0.26-0.86,0.45
	c-0.27,0.19-0.5,0.41-0.7,0.67c-0.2,0.26-0.33,0.53-0.39,0.82v2.68c0.13,0.31,0.3,0.6,0.5,0.87s0.44,0.5,0.7,0.7
	c0.26,0.2,0.55,0.35,0.85,0.47S72.27,166.08,72.6,166.08z"/>
<path class="st2" d="M83.4,167.45c-0.71,0-1.36-0.13-1.94-0.39s-1.09-0.61-1.51-1.05c-0.42-0.44-0.75-0.96-0.98-1.56
	c-0.23-0.59-0.35-1.22-0.35-1.88c0-0.66,0.12-1.28,0.35-1.87c0.23-0.59,0.56-1.1,0.99-1.55c0.43-0.44,0.93-0.79,1.52-1.05
	c0.59-0.26,1.24-0.39,1.94-0.39s1.35,0.13,1.94,0.4c0.58,0.26,1.08,0.62,1.48,1.05s0.72,0.95,0.95,1.53
	c0.22,0.58,0.33,1.19,0.33,1.81c0,0.13,0,0.25-0.01,0.36c-0.01,0.11-0.02,0.19-0.03,0.25h-7.79c0.04,0.47,0.14,0.89,0.32,1.28
	c0.18,0.38,0.41,0.71,0.7,0.99c0.29,0.28,0.61,0.49,0.98,0.65c0.37,0.16,0.75,0.23,1.16,0.23c0.29,0,0.57-0.04,0.85-0.12
	s0.53-0.18,0.77-0.31c0.24-0.13,0.45-0.29,0.64-0.49c0.19-0.19,0.33-0.41,0.42-0.65l1.37,0.38c-0.16,0.35-0.37,0.67-0.64,0.95
	c-0.27,0.29-0.58,0.54-0.94,0.75c-0.35,0.21-0.75,0.38-1.18,0.5S83.86,167.45,83.4,167.45z M86.62,161.94
	c-0.04-0.44-0.15-0.85-0.33-1.23c-0.19-0.38-0.42-0.7-0.7-0.96c-0.28-0.26-0.61-0.47-0.98-0.62c-0.37-0.15-0.77-0.23-1.19-0.23
	s-0.82,0.08-1.19,0.23c-0.37,0.15-0.7,0.36-0.98,0.63s-0.51,0.59-0.68,0.96c-0.17,0.37-0.28,0.78-0.32,1.22H86.62z"/>
</svg>
